PathFileType  4	(X/Y/Z) C:\Users\antoi\Documents\MyRepositories\mobilecap\ResultsAnalysis
DataRate	CameraRate	NumFrames	NumMarkers	Units	OrigDataRate	OrigDataStartFrame	OrigNumFrames
100.0	100.0	4	51	mm	100.0	28	223
Frame#	Time	r_knee			r_shank_antsup			r_ankle			r_calc			r_5meta			r_toe			L_knee			L_shank_antsup			L_ankle			L_calc			L_5meta			L_toe			r_sh2			r_sh3			r_sh4			L_sh2			L_sh3			r_thigh1			r_thigh2			r_thigh3			r_thigh4			r_thigh5			L_thigh1			L_thigh2			L_thigh3			L_thigh4			r.ASIS			r.PSIS			L.ASIS			L.PSIS			C7			R_Shoulder			L_Shoulder			R_Sternum			L_Sternum			R_humerus			R_elbow_med			R_elbow_lat			R_forearm			R_wrist_radius			R_wrist_ulna			L_humerus			L_elbow_med			L_elbow_lat			L_forearm			L_wrist_radius			L_wrist_ulna			R_HJC			L_HJC			R_HJC_reg			L_HJC_reg			
		X1	Y1	Z1	X2	Y2	Z2	X3	Y3	Z3	X4	Y4	Z4	X5	Y5	Z5	X6	Y6	Z6	X7	Y7	Z7	X8	Y8	Z8	X9	Y9	Z9	X10	Y10	Z10	X11	Y11	Z11	X12	Y12	Z12	X13	Y13	Z13	X14	Y14	Z14	X15	Y15	Z15	X16	Y16	Z16	X17	Y17	Z17	X18	Y18	Z18	X19	Y19	Z19	X20	Y20	Z20	X21	Y21	Z21	X22	Y22	Z22	X23	Y23	Z23	X24	Y24	Z24	X25	Y25	Z25	X26	Y26	Z26	X27	Y27	Z27	X28	Y28	Z28	X29	Y29	Z29	X30	Y30	Z30	X31	Y31	Z31	X32	Y32	Z32	X33	Y33	Z33	X34	Y34	Z34	X35	Y35	Z35	X36	Y36	Z36	X37	Y37	Z37	X38	Y38	Z38	X39	Y39	Z39	X40	Y40	Z40	X41	Y41	Z41	X42	Y42	Z42	X43	Y43	Z43	X44	Y44	Z44	X45	Y45	Z45	X46	Y46	Z46	X47	Y47	Z47	X48	Y48	Z48	X49	Y49	Z49	X50	Y50	Z50	X51	Y51	Z51	

28	0.27000000	-1033.25553	770.95849	-458.80429	-1010.77784	691.62629	-483.86860	-1200.14451	405.45990	-473.35135	-1278.74219	373.48748	-502.03330	-1100.17180	353.72407	-447.10455	-1058.36183	377.08987	-509.48770	-1035.62410	765.42925	-736.85391	-1029.81967	665.76744	-737.17452	-1216.29382	410.16994	-716.49539	-1286.96071	372.98859	-671.83607	-1120.11917	351.78931	-763.11843	-1075.95942	373.25306	-709.69281	-1069.88159	596.00783	-456.43080	-1070.83702	731.95676	-440.25004	-1129.23572	635.70241	-432.97462	-1107.45540	710.38925	-747.32175	-1158.78103	599.12527	-754.07446	-1055.92130	1089.91051	-422.73279	-1028.81446	979.76902	-433.53971	-1077.26615	943.65730	-403.09362	-1164.51044	1061.33323	-403.25691	-1132.14452	948.95924	-414.08360	-1070.03842	1032.93310	-786.63352	-1024.79242	904.50831	-760.56752	-1177.09078	998.90017	-750.96364	-1125.83995	868.26957	-739.62454	-1049.03249	1207.31228	-459.76129	-1203.37977	1316.15542	-544.67493	-1037.79109	1187.38846	-706.92756	-1202.26740	1318.72834	-645.72338	-996.31044	1671.81561	-594.20667	-909.80087	1590.82409	-419.43434	-898.67063	1611.79686	-761.09323	-878.17981	1590.27284	-569.38575	-877.58275	1589.66584	-594.44524	-929.64969	1453.69538	-362.71752	-1037.09888	1263.37256	-408.68841	-1009.23882	1266.73242	-342.60057	-925.31929	1153.13417	-351.39109	-872.10354	1029.77051	-369.92702	-893.81738	1017.43916	-344.33116	-905.01450	1490.10658	-822.15397	-1048.03356	1292.11076	-797.40221	-996.34562	1296.60399	-857.67572	-942.87672	1200.17304	-818.40306	-913.48612	1051.04202	-792.00632	-931.61687	1042.21049	-816.91765	-1150.18244	1164.32790	-483.20119	-1142.49474	1155.52807	-689.33690	-1140.43236	1157.51345	-496.17653	-1138.62885	1161.68262	-659.94514	
29	0.28000000	-1026.72446	767.42710	-457.37314	-1004.53408	687.75825	-482.82087	-1199.43238	405.44470	-473.42335	-1278.46203	373.84015	-502.19171	-1100.07953	353.45112	-446.73016	-1058.00381	376.35786	-509.29154	-1027.42339	760.81834	-736.29936	-1023.25413	661.25772	-737.03502	-1215.56313	410.34702	-716.22580	-1286.90155	373.09719	-671.63201	-1120.00416	351.55976	-762.98489	-1075.79600	372.94597	-709.62786	-1065.54784	593.15201	-455.99952	-1064.10267	728.94761	-439.08510	-1123.90494	633.64861	-432.29898	-1099.58724	707.85304	-747.41088	-1153.70100	597.62617	-753.68628	-1052.92163	1086.07218	-420.55923	-1024.48161	976.19860	-431.29529	-1072.85586	939.56214	-401.50155	-1161.33144	1056.44673	-402.35544	-1127.71562	944.29763	-412.72464	-1065.39047	1028.30313	-786.33559	-1018.05487	900.26837	-760.69075	-1171.73201	992.36768	-749.68813	-1118.38084	862.52587	-739.24074	-1047.10530	1201.19726	-458.72170	-1201.09279	1310.85353	-544.25914	-1036.20745	1179.45441	-705.54465	-1199.57551	1312.95617	-645.70492	-991.99854	1664.68821	-592.60141	-906.77055	1582.26736	-417.53444	-893.36771	1603.77895	-758.30531	-873.60394	1582.71070	-567.03674	-872.99246	1582.04681	-591.89098	-924.77178	1445.33965	-361.13699	-1024.74855	1251.79327	-408.62453	-999.19069	1255.88273	-341.95515	-911.28539	1145.30152	-350.17149	-853.50199	1024.56163	-368.80876	-874.97267	1011.19691	-343.71549	-897.82600	1482.77025	-819.50759	-1038.95814	1282.24862	-796.84177	-986.86825	1287.60957	-856.47824	-932.21497	1191.93331	-817.01013	-900.85371	1043.62420	-789.91348	-918.01642	1035.04843	-815.58415	-1148.88584	1159.01890	-481.84645	-1141.20862	1148.71098	-687.91992	-1139.25491	1151.52417	-495.22431	-1136.81075	1154.92024	-658.86049	
30	0.29000000	-1019.97225	763.64893	-456.01227	-998.20467	683.74441	-481.67606	-1198.87008	405.41917	-473.62341	-1277.94680	374.22281	-502.17568	-1099.96551	353.24799	-446.43634	-1057.67769	375.79086	-509.00040	-1019.36203	756.21046	-735.79658	-1016.59306	656.75433	-736.93940	-1214.83078	410.69713	-716.32767	-1286.79230	373.22131	-671.37774	-1119.76507	351.50384	-763.31788	-1075.62862	372.61909	-709.65638	-1060.99027	590.17524	-455.58349	-1057.16763	726.05654	-437.66573	-1118.27620	631.16052	-431.50390	-1091.81694	705.38420	-747.40396	-1148.50988	596.37410	-753.47594	-1049.21113	1081.81625	-418.29547	-1019.69986	972.42530	-428.80968	-1068.08268	935.27443	-400.06519	-1157.50794	1051.43203	-401.28278	-1122.85670	939.55926	-411.32410	-1060.42762	1023.17394	-786.05295	-1011.37490	895.46398	-760.47635	-1166.08907	986.02533	-748.41487	-1111.23548	856.66340	-738.28329	-1044.78023	1195.25533	-457.37437	-1198.70736	1305.27853	-543.94201	-1033.24633	1172.32696	-704.13833	-1196.75189	1306.82315	-645.78791	-987.99864	1657.88744	-590.84124	-904.20907	1574.17919	-415.24839	-888.38308	1596.59813	-755.83212	-869.25762	1575.45062	-564.47986	-868.54845	1574.69847	-589.44468	-920.51122	1437.31658	-359.40279	-1012.21015	1239.97099	-408.33925	-988.57643	1245.41422	-340.87681	-896.30881	1138.16741	-348.94177	-833.67581	1020.61375	-367.76063	-854.74700	1006.08458	-342.93013	-891.28587	1476.00231	-816.32097	-1029.32925	1272.14293	-795.89854	-976.75444	1278.97205	-854.88212	-920.83916	1183.71134	-815.61124	-887.10887	1036.60958	-788.16075	-903.28210	1028.08440	-814.27352	-1146.87210	1153.43838	-480.73592	-1138.53417	1142.07735	-686.72562	-1137.20439	1145.79732	-494.02047	-1134.06105	1148.27949	-657.71304	
31	0.30000000	-1013.01052	759.78753	-454.71035	-991.81181	679.50796	-480.63147	-1198.02155	405.65726	-473.50156	-1277.54275	374.59774	-502.18694	-1099.77361	353.01798	-446.13771	-1057.27021	375.23032	-508.73262	-1011.11854	751.58839	-735.20838	-1009.53090	652.23981	-736.79584	-1213.89689	411.24285	-716.43904	-1286.47697	373.68927	-671.19625	-1119.46096	351.55566	-763.78172	-1075.29591	372.18102	-709.69067	-1056.35541	587.07397	-454.89441	-1049.90126	722.96897	-436.55747	-1113.04103	629.15437	-430.66708	-1083.83602	702.72761	-747.47057	-1142.79305	595.23675	-753.44446	-1044.84462	1077.36097	-416.05134	-1014.71542	968.57833	-426.09592	-1062.97703	930.94388	-398.55891	-1153.10409	1046.32987	-400.32793	-1117.62826	934.80759	-410.09857	-1055.30721	1017.60824	-785.62828	-1004.87899	890.39964	-760.38949	-1160.24108	979.85155	-747.09015	-1104.23070	850.84747	-737.07491	-1042.24238	1189.79331	-455.26880	-1196.06916	1299.50005	-543.87442	-1029.67933	1165.62743	-703.05834	-1193.71463	1300.42947	-645.88170	-984.35485	1651.50285	-588.84898	-901.95488	1566.75223	-412.70266	-883.95425	1590.12459	-753.39458	-865.22406	1568.67937	-561.88464	-864.31592	1567.93086	-587.17940	-916.77528	1430.00903	-357.48694	-1000.67555	1228.22474	-407.55541	-978.03455	1236.10446	-338.64324	-880.55220	1132.44265	-347.67546	-812.71280	1018.52094	-366.86430	-833.21314	1002.68892	-342.20067	-885.43700	1469.85637	-812.66845	-1019.18597	1262.27520	-794.80403	-965.78863	1271.45959	-853.57190	-908.78739	1176.30571	-813.99332	-872.22977	1030.35317	-786.30153	-887.95300	1021.41193	-812.89415	-1144.37952	1147.92104	-479.58892	-1135.07254	1135.45330	-685.47005	-1134.76412	1139.99868	-492.19439	-1130.96502	1141.49251	-656.67172	
